<?xml version="1.0" standalone="no"?>
<!DOCTYPE svg PUBLIC "-//W3C//DTD SVG 20010904//EN"
 "http://www.w3.org/TR/2001/REC-SVG-20010904/DTD/svg10.dtd">
<svg version="1.0" xmlns="http://www.w3.org/2000/svg"
 width="1600.000000pt" height="1600.000000pt" viewBox="0 0 1600.000000 1600.000000"
 preserveAspectRatio="xMidYMid meet">
<metadata>
Created by potrace 1.14, written by Peter Selinger 2001-2017
</metadata>
<g transform="translate(0.000000,1600.000000) scale(0.100000,-0.100000)"
fill="#000000" stroke="none">
<path d="M3473 15985 c-166 -36 -311 -150 -382 -300 -58 -122 -61 -158 -61
-673 l0 -470 113 57 c126 64 284 119 432 151 145 32 468 39 637 15 666 -93
1241 -491 1582 -1093 190 -337 289 -771 257 -1140 -40 -479 -220 -894 -553
-1276 l-43 -49 50 6 c249 31 920 123 1077 148 l198 32 699 876 c384 482 728
904 763 937 284 272 789 397 1189 295 369 -94 663 -373 788 -747 110 -329 65
-729 -118 -1032 -25 -42 -417 -561 -871 -1152 -876 -1143 -928 -1205 -1107
-1333 -170 -121 -333 -201 -523 -256 -58 -16 -292 -93 -520 -169 l-415 -139
-3 -276 -2 -277 2125 0 2125 0 0 605 0 605 1514 0 1514 0 176 -297 c98 -164
175 -304 173 -313 -2 -9 -81 -146 -176 -304 -94 -158 -171 -290 -171 -292 0
-2 272 -4 605 -4 l605 0 0 3688 c0 3641 0 3690 -20 3766 -54 214 -212 366
-427 411 -99 21 -11134 21 -11230 0z"/>
<path d="M3670 14160 c-616 -112 -1098 -590 -1222 -1213 -32 -158 -31 -416 1
-567 68 -320 194 -554 420 -781 226 -225 460 -353 775 -421 137 -30 435 -32
571 -5 297 60 552 192 768 397 335 317 509 771 468 1218 -62 678 -531 1212
-1196 1364 -134 30 -441 35 -585 8z"/>
<path d="M9005 12970 c-143 -17 -257 -72 -341 -164 -30 -33 -382 -500 -781
-1036 l-725 -975 -796 -119 -797 -119 -1375 -7 c-1178 -6 -1387 -9 -1456 -22
-264 -51 -462 -146 -609 -293 -135 -135 -216 -293 -277 -540 l-22 -90 -3
-1709 c-3 -1457 -1 -1708 10 -1703 47 18 245 70 317 83 262 47 587 20 874 -73
138 -44 352 -153 476 -241 122 -86 316 -280 402 -402 186 -263 297 -570 330
-916 l13 -129 6 100 c41 654 417 1222 993 1500 212 102 423 158 673 178 l143
11 2 1410 3 1410 730 218 c515 155 757 232 821 262 103 49 217 124 286 188 78
72 1687 2154 1719 2224 48 104 62 178 63 309 0 202 -60 361 -184 486 -120 122
-305 181 -495 159z"/>
<path d="M6667 7513 c-4 -3 -7 -278 -7 -610 l0 -603 4550 0 4550 0 0 311 c0
354 -6 402 -72 536 -75 154 -219 279 -389 339 l-84 29 -4271 3 c-2349 1 -4274
-1 -4277 -5z"/>
<path d="M2300 5694 c-14 -2 -56 -9 -95 -15 -358 -58 -698 -315 -869 -657
-294 -586 -55 -1312 530 -1614 131 -68 317 -126 417 -129 18 -1 -14 -7 -70
-14 -151 -20 -254 -43 -386 -86 -683 -223 -1153 -827 -1216 -1564 -6 -67 -11
-399 -11 -747 l0 -628 7275 0 7276 0 -4 738 -3 737 -27 121 c-123 557 -446
987 -927 1233 -210 107 -405 166 -645 196 -60 7 -92 13 -70 14 57 1 228 45
311 79 380 155 653 483 740 892 26 123 24 363 -4 485 -111 486 -467 837 -952
942 -112 24 -371 24 -478 -1 -255 -57 -462 -173 -638 -357 -160 -169 -260
-359 -315 -604 -9 -40 -14 -121 -13 -240 1 -160 4 -191 26 -276 96 -357 319
-639 630 -795 132 -66 314 -122 411 -125 18 -1 -15 -7 -73 -15 -307 -39 -568
-132 -800 -284 -467 -307 -753 -796 -803 -1375 -4 -40 -4 -40 -5 7 -5 134 -64
386 -127 543 -250 620 -783 1020 -1475 1109 -58 8 -91 14 -73 15 17 0 64 8
103 16 236 50 455 169 622 341 160 163 253 329 316 563 23 87 26 113 26 286 0
173 -3 199 -26 286 -63 234 -156 400 -316 563 -167 171 -378 287 -624 342
-107 25 -366 25 -478 1 -499 -107 -873 -492 -961 -987 -17 -96 -17 -314 0
-410 92 -517 501 -917 1016 -994 l80 -12 -86 -8 c-205 -17 -451 -87 -641 -182
-190 -95 -326 -193 -470 -336 -250 -250 -417 -571 -484 -928 -14 -74 -29 -153
-34 -175 l-8 -40 -1 41 c-2 65 -29 209 -60 324 -198 714 -819 1229 -1562 1296
l-84 7 87 13 c374 55 717 306 893 654 86 171 127 347 127 545 0 138 -16 244
-54 365 -182 571 -748 925 -1338 836 -181 -28 -336 -88 -494 -193 -274 -183
-460 -466 -521 -798 -26 -135 -17 -376 18 -508 126 -475 516 -831 987 -901
l85 -13 -85 -7 c-214 -19 -437 -83 -645 -187 -283 -140 -512 -343 -689 -609
-147 -220 -256 -529 -284 -800 l-8 -75 -13 99 c-92 703 -549 1266 -1206 1484
-132 44 -234 67 -388 87 -56 7 -86 13 -66 14 69 2 268 59 362 104 252 119 460
323 585 572 94 190 138 446 113 664 -33 277 -145 512 -341 711 -232 237 -503
356 -825 365 -77 2 -151 2 -165 -1z"/>
</g>
</svg>
